<mxfile host="app.diagrams.net" agent="Mozilla/5.0 (Macintosh; Intel Mac OS X 10_15_7) AppleWebKit/537.36 (KHTML, like Gecko) Chrome/130.0.0.0 Safari/537.36" version="24.8.3">
  <diagram name="ページ1" id="POTG8XySrepqZoLcC0DG">
    <mxGraphModel dx="2048" dy="1121" grid="1" gridSize="10" guides="1" tooltips="1" connect="1" arrows="1" fold="1" page="1" pageScale="1" pageWidth="827" pageHeight="1169" math="0" shadow="0">
      <root>
        <mxCell id="0" />
        <mxCell id="1" parent="0" />
        <mxCell id="xPqBgnL-eaIDLJrNf_FH-5" value="&lt;font style=&quot;font-size: 15px;&quot;&gt;js&lt;/font&gt;" style="swimlane;fontStyle=1;childLayout=stackLayout;horizontal=1;startSize=30;horizontalStack=0;resizeParent=1;resizeParentMax=0;resizeLast=0;collapsible=1;marginBottom=0;whiteSpace=wrap;html=1;" parent="1" vertex="1">
          <mxGeometry x="52" y="174.14999999999998" width="140" height="150" as="geometry" />
        </mxCell>
        <UserObject label="admin.js" id="xPqBgnL-eaIDLJrNf_FH-6">
          <mxCell style="text;strokeColor=none;fillColor=none;align=left;verticalAlign=middle;spacingLeft=4;spacingRight=4;overflow=hidden;points=[[0,0.5],[1,0.5]];portConstraint=eastwest;rotatable=0;whiteSpace=wrap;html=1;" parent="xPqBgnL-eaIDLJrNf_FH-5" vertex="1">
            <mxGeometry y="30" width="140" height="30" as="geometry" />
          </mxCell>
        </UserObject>
        <mxCell id="xPqBgnL-eaIDLJrNf_FH-7" value="temperature_graph.js" style="text;strokeColor=none;fillColor=none;align=left;verticalAlign=middle;spacingLeft=4;spacingRight=4;overflow=hidden;points=[[0,0.5],[1,0.5]];portConstraint=eastwest;rotatable=0;whiteSpace=wrap;html=1;" parent="xPqBgnL-eaIDLJrNf_FH-5" vertex="1">
          <mxGeometry y="60" width="140" height="30" as="geometry" />
        </mxCell>
        <mxCell id="xPqBgnL-eaIDLJrNf_FH-8" value="trafficStat_graph.js" style="text;strokeColor=none;fillColor=none;align=left;verticalAlign=middle;spacingLeft=4;spacingRight=4;overflow=hidden;points=[[0,0.5],[1,0.5]];portConstraint=eastwest;rotatable=0;whiteSpace=wrap;html=1;" parent="xPqBgnL-eaIDLJrNf_FH-5" vertex="1">
          <mxGeometry y="90" width="140" height="30" as="geometry" />
        </mxCell>
        <UserObject label="utilization_graph.js" id="xPqBgnL-eaIDLJrNf_FH-9">
          <mxCell style="text;strokeColor=none;fillColor=none;align=left;verticalAlign=middle;spacingLeft=4;spacingRight=4;overflow=hidden;points=[[0,0.5],[1,0.5]];portConstraint=eastwest;rotatable=0;whiteSpace=wrap;html=1;" parent="xPqBgnL-eaIDLJrNf_FH-5" vertex="1">
            <mxGeometry y="120" width="140" height="30" as="geometry" />
          </mxCell>
        </UserObject>
        <mxCell id="xPqBgnL-eaIDLJrNf_FH-11" value="&lt;font style=&quot;font-size: 15px;&quot;&gt;www&lt;/font&gt;" style="swimlane;whiteSpace=wrap;html=1;" parent="1" vertex="1">
          <mxGeometry x="32" y="134.15" width="180" height="360" as="geometry" />
        </mxCell>
        <mxCell id="xPqBgnL-eaIDLJrNf_FH-1" value="&lt;font style=&quot;font-size: 15px;&quot;&gt;observer&lt;/font&gt;" style="swimlane;fontStyle=1;childLayout=stackLayout;horizontal=1;startSize=30;horizontalStack=0;resizeParent=1;resizeParentMax=0;resizeLast=0;collapsible=1;marginBottom=0;whiteSpace=wrap;html=1;" parent="xPqBgnL-eaIDLJrNf_FH-11" vertex="1">
          <mxGeometry x="20" y="220" width="140" height="120" as="geometry" />
        </mxCell>
        <mxCell id="xPqBgnL-eaIDLJrNf_FH-2" value="temperature.html" style="text;strokeColor=none;fillColor=none;align=left;verticalAlign=middle;spacingLeft=4;spacingRight=4;overflow=hidden;points=[[0,0.5],[1,0.5]];portConstraint=eastwest;rotatable=0;whiteSpace=wrap;html=1;" parent="xPqBgnL-eaIDLJrNf_FH-1" vertex="1">
          <mxGeometry y="30" width="140" height="30" as="geometry" />
        </mxCell>
        <mxCell id="xPqBgnL-eaIDLJrNf_FH-3" value="trafficStat.html" style="text;strokeColor=none;fillColor=none;align=left;verticalAlign=middle;spacingLeft=4;spacingRight=4;overflow=hidden;points=[[0,0.5],[1,0.5]];portConstraint=eastwest;rotatable=0;whiteSpace=wrap;html=1;" parent="xPqBgnL-eaIDLJrNf_FH-1" vertex="1">
          <mxGeometry y="60" width="140" height="30" as="geometry" />
        </mxCell>
        <mxCell id="xPqBgnL-eaIDLJrNf_FH-4" value="utilization.html" style="text;strokeColor=none;fillColor=none;align=left;verticalAlign=middle;spacingLeft=4;spacingRight=4;overflow=hidden;points=[[0,0.5],[1,0.5]];portConstraint=eastwest;rotatable=0;whiteSpace=wrap;html=1;" parent="xPqBgnL-eaIDLJrNf_FH-1" vertex="1">
          <mxGeometry y="90" width="140" height="30" as="geometry" />
        </mxCell>
        <mxCell id="xPqBgnL-eaIDLJrNf_FH-190" value="" style="html=1;rounded=1;curved=0;sourcePerimeterSpacing=0;targetPerimeterSpacing=0;startSize=6;endSize=6;noEdgeStyle=1;orthogonal=1;entryX=1;entryY=0.5;entryDx=0;entryDy=0;exitX=0;exitY=0.5;exitDx=0;exitDy=0;" parent="1" source="xPqBgnL-eaIDLJrNf_FH-167" target="xPqBgnL-eaIDLJrNf_FH-7" edge="1">
          <mxGeometry relative="1" as="geometry">
            <mxPoint x="222" y="231.64999999999998" as="sourcePoint" />
            <mxPoint x="272" y="204.14999999999998" as="targetPoint" />
            <Array as="points">
              <mxPoint x="261" y="349.15" />
              <mxPoint x="231" y="249.14999999999998" />
            </Array>
          </mxGeometry>
        </mxCell>
        <mxCell id="xPqBgnL-eaIDLJrNf_FH-196" value="" style="html=1;rounded=1;curved=0;sourcePerimeterSpacing=0;targetPerimeterSpacing=0;startSize=6;endSize=6;noEdgeStyle=1;orthogonal=1;entryX=1;entryY=0.5;entryDx=0;entryDy=0;exitX=0;exitY=0.5;exitDx=0;exitDy=0;" parent="1" source="xPqBgnL-eaIDLJrNf_FH-167" target="xPqBgnL-eaIDLJrNf_FH-8" edge="1">
          <mxGeometry relative="1" as="geometry">
            <mxPoint x="382" y="275.15" as="sourcePoint" />
            <mxPoint x="202" y="259.15" as="targetPoint" />
            <Array as="points">
              <mxPoint x="261" y="349.15" />
              <mxPoint x="231" y="279.15" />
            </Array>
          </mxGeometry>
        </mxCell>
        <mxCell id="xPqBgnL-eaIDLJrNf_FH-197" value="" style="html=1;rounded=1;curved=0;sourcePerimeterSpacing=0;targetPerimeterSpacing=0;startSize=6;endSize=6;noEdgeStyle=1;orthogonal=1;entryX=1;entryY=0.5;entryDx=0;entryDy=0;exitX=0;exitY=0.5;exitDx=0;exitDy=0;" parent="1" source="xPqBgnL-eaIDLJrNf_FH-167" target="xPqBgnL-eaIDLJrNf_FH-9" edge="1">
          <mxGeometry relative="1" as="geometry">
            <mxPoint x="382" y="275.15" as="sourcePoint" />
            <mxPoint x="202" y="289.15" as="targetPoint" />
            <Array as="points">
              <mxPoint x="261" y="349.15" />
              <mxPoint x="231" y="309.15" />
            </Array>
          </mxGeometry>
        </mxCell>
        <mxCell id="_yV6Y9GvnwlzQ7EZrmGs-10" value="" style="html=1;rounded=1;curved=0;sourcePerimeterSpacing=0;targetPerimeterSpacing=0;startSize=6;endSize=6;noEdgeStyle=1;orthogonal=1;entryX=0;entryY=0.5;entryDx=0;entryDy=0;exitX=1;exitY=0.5;exitDx=0;exitDy=0;" parent="1" source="_yV6Y9GvnwlzQ7EZrmGs-13" target="xPqBgnL-eaIDLJrNf_FH-7" edge="1">
          <mxGeometry relative="1" as="geometry">
            <mxPoint x="-139" y="344.15" as="sourcePoint" />
            <mxPoint x="-219" y="394.15" as="targetPoint" />
            <Array as="points">
              <mxPoint x="-20" y="349" />
              <mxPoint x="10" y="249" />
            </Array>
          </mxGeometry>
        </mxCell>
        <mxCell id="_yV6Y9GvnwlzQ7EZrmGs-11" value="" style="html=1;rounded=1;curved=0;sourcePerimeterSpacing=0;targetPerimeterSpacing=0;startSize=6;endSize=6;noEdgeStyle=1;orthogonal=1;entryX=0;entryY=0.5;entryDx=0;entryDy=0;exitX=1;exitY=0.5;exitDx=0;exitDy=0;strokeColor=default;" parent="1" source="_yV6Y9GvnwlzQ7EZrmGs-13" target="xPqBgnL-eaIDLJrNf_FH-8" edge="1">
          <mxGeometry relative="1" as="geometry">
            <mxPoint x="-99" y="404.15" as="sourcePoint" />
            <mxPoint x="52" y="509.15" as="targetPoint" />
            <Array as="points">
              <mxPoint x="-20" y="349" />
              <mxPoint x="10" y="279" />
            </Array>
          </mxGeometry>
        </mxCell>
        <mxCell id="_yV6Y9GvnwlzQ7EZrmGs-12" value="" style="html=1;rounded=1;curved=0;sourcePerimeterSpacing=0;targetPerimeterSpacing=0;startSize=6;endSize=6;noEdgeStyle=1;orthogonal=1;entryX=0;entryY=0.5;entryDx=0;entryDy=0;exitX=1;exitY=0.5;exitDx=0;exitDy=0;" parent="1" source="_yV6Y9GvnwlzQ7EZrmGs-13" target="xPqBgnL-eaIDLJrNf_FH-9" edge="1">
          <mxGeometry relative="1" as="geometry">
            <mxPoint x="-159" y="364.15" as="sourcePoint" />
            <mxPoint x="-6" y="524.15" as="targetPoint" />
            <Array as="points">
              <mxPoint x="-20" y="349" />
              <mxPoint x="10" y="309" />
            </Array>
          </mxGeometry>
        </mxCell>
        <mxCell id="_yV6Y9GvnwlzQ7EZrmGs-13" value="&lt;span style=&quot;color: rgb(31, 35, 40); font-family: -apple-system, &amp;quot;system-ui&amp;quot;, &amp;quot;Segoe UI&amp;quot;, &amp;quot;Noto Sans&amp;quot;, Helvetica, Arial, sans-serif, &amp;quot;Apple Color Emoji&amp;quot;, &amp;quot;Segoe UI Emoji&amp;quot;; background-color: rgb(255, 255, 255);&quot;&gt;supervision_logging.sh&lt;/span&gt;&lt;div&gt;&lt;p style=&quot;margin: 0px; font-variant-numeric: normal; font-variant-east-asian: normal; font-variant-alternates: normal; font-size-adjust: none; font-kerning: auto; font-optical-sizing: auto; font-feature-settings: normal; font-variation-settings: normal; font-variant-position: normal; font-stretch: normal; line-height: normal; color: rgb(0, 0, 0);&quot; class=&quot;p1&quot;&gt;cpu_logger&lt;/p&gt;&lt;/div&gt;" style="rounded=1;arcSize=10;whiteSpace=wrap;html=1;align=center;spacingBottom=1;spacingTop=0;labelBackgroundColor=none;fillColor=default;strokeColor=#000000;fontColor=#182E3E;" parent="1" vertex="1">
          <mxGeometry x="-230" y="326.22999999999996" width="146" height="45.85" as="geometry" />
        </mxCell>
        <mxCell id="_yV6Y9GvnwlzQ7EZrmGs-17" value="&lt;span style=&quot;color: rgb(31, 35, 40); text-align: start; background-color: rgb(255, 255, 255);&quot;&gt;&lt;font face=&quot;Helvetica&quot; style=&quot;font-size: 12px;&quot;&gt;internal_website_manage.sh&lt;/font&gt;&lt;/span&gt;" style="rounded=1;arcSize=10;whiteSpace=wrap;html=1;align=center;spacingBottom=0;spacingTop=0;labelBackgroundColor=none;fillColor=default;strokeColor=#000000;fontColor=#182E3E;" parent="1" vertex="1">
          <mxGeometry x="-242" y="174.14999999999998" width="170" height="30" as="geometry" />
        </mxCell>
        <mxCell id="_yV6Y9GvnwlzQ7EZrmGs-18" value="" style="endArrow=classic;html=1;rounded=1;entryX=0.5;entryY=1;entryDx=0;entryDy=0;exitX=0;exitY=0.5;exitDx=0;exitDy=0;curved=0;" parent="1" source="_yV6Y9GvnwlzQ7EZrmGs-44" target="_yV6Y9GvnwlzQ7EZrmGs-17" edge="1">
          <mxGeometry width="50" height="50" relative="1" as="geometry">
            <mxPoint x="37" y="78.15" as="sourcePoint" />
            <mxPoint x="-161" y="344.15" as="targetPoint" />
            <Array as="points">
              <mxPoint x="-40" y="460" />
              <mxPoint x="-40" y="320" />
              <mxPoint x="-40" y="250" />
              <mxPoint x="-110" y="250" />
              <mxPoint x="-157" y="250" />
            </Array>
          </mxGeometry>
        </mxCell>
        <mxCell id="_yV6Y9GvnwlzQ7EZrmGs-29" value="&amp;nbsp;毎日 0:00 実行&amp;nbsp;" style="edgeLabel;html=1;align=center;verticalAlign=middle;resizable=0;points=[];" parent="_yV6Y9GvnwlzQ7EZrmGs-18" vertex="1" connectable="0">
          <mxGeometry x="0.4756" y="1" relative="1" as="geometry">
            <mxPoint x="-18" y="-1" as="offset" />
          </mxGeometry>
        </mxCell>
        <mxCell id="_yV6Y9GvnwlzQ7EZrmGs-19" value="" style="html=1;rounded=1;curved=0;sourcePerimeterSpacing=0;targetPerimeterSpacing=0;startSize=6;endSize=6;noEdgeStyle=1;orthogonal=1;entryX=0;entryY=0.5;entryDx=0;entryDy=0;exitX=1;exitY=0.5;exitDx=0;exitDy=0;" parent="1" source="_yV6Y9GvnwlzQ7EZrmGs-17" target="xPqBgnL-eaIDLJrNf_FH-6" edge="1">
          <mxGeometry relative="1" as="geometry">
            <mxPoint x="-83" y="359.15" as="sourcePoint" />
            <mxPoint x="62" y="409.15" as="targetPoint" />
            <Array as="points">
              <mxPoint x="-20" y="189" />
              <mxPoint y="219" />
            </Array>
          </mxGeometry>
        </mxCell>
        <mxCell id="_yV6Y9GvnwlzQ7EZrmGs-43" value="" style="group" parent="1" vertex="1" connectable="0">
          <mxGeometry y="521" width="240" height="36" as="geometry" />
        </mxCell>
        <mxCell id="_yV6Y9GvnwlzQ7EZrmGs-44" value="" style="rounded=1;whiteSpace=wrap;html=1;" parent="_yV6Y9GvnwlzQ7EZrmGs-43" vertex="1">
          <mxGeometry x="-1.263157894736842" width="240" height="36" as="geometry" />
        </mxCell>
        <mxCell id="_yV6Y9GvnwlzQ7EZrmGs-45" value="" style="shape=image;html=1;verticalLabelPosition=bottom;verticalAlign=top;imageAspect=1;aspect=fixed;image=img/clipart/Gear_128x128.png;container=0;labelBackgroundColor=none;fillColor=none;strokeColor=#BAC8D3;fontColor=#182E3E;" parent="_yV6Y9GvnwlzQ7EZrmGs-43" vertex="1">
          <mxGeometry x="83.84210526315789" y="4.150000000000006" width="23.62" height="27.7" as="geometry" />
        </mxCell>
        <mxCell id="_yV6Y9GvnwlzQ7EZrmGs-46" value="cron" style="text;html=1;align=center;verticalAlign=middle;resizable=0;points=[];autosize=1;strokeColor=none;fillColor=none;fontSize=17;labelBackgroundColor=none;fontColor=#182E3E;fontStyle=1" parent="_yV6Y9GvnwlzQ7EZrmGs-43" vertex="1">
          <mxGeometry x="106.99789473684208" y="2.9999999999999942" width="60" height="30" as="geometry" />
        </mxCell>
        <mxCell id="_yV6Y9GvnwlzQ7EZrmGs-47" value="" style="endArrow=classic;html=1;rounded=1;curved=0;entryX=0.5;entryY=1;entryDx=0;entryDy=0;exitX=1;exitY=0.5;exitDx=0;exitDy=0;" parent="1" source="_yV6Y9GvnwlzQ7EZrmGs-44" target="xPqBgnL-eaIDLJrNf_FH-167" edge="1">
          <mxGeometry width="50" height="50" relative="1" as="geometry">
            <mxPoint x="224" y="78" as="sourcePoint" />
            <mxPoint x="419" y="344" as="targetPoint" />
            <Array as="points">
              <mxPoint x="400" y="539" />
            </Array>
          </mxGeometry>
        </mxCell>
        <mxCell id="_yV6Y9GvnwlzQ7EZrmGs-48" value="毎日 0:00 実行 (nice -20)" style="edgeLabel;html=1;align=center;verticalAlign=middle;resizable=0;points=[];" parent="_yV6Y9GvnwlzQ7EZrmGs-47" vertex="1" connectable="0">
          <mxGeometry x="0.737" relative="1" as="geometry">
            <mxPoint y="6" as="offset" />
          </mxGeometry>
        </mxCell>
        <mxCell id="_yV6Y9GvnwlzQ7EZrmGs-49" value="" style="endArrow=classic;html=1;rounded=1;curved=0;exitX=0;exitY=0.5;exitDx=0;exitDy=0;entryX=0.25;entryY=1;entryDx=0;entryDy=0;" parent="1" source="_yV6Y9GvnwlzQ7EZrmGs-44" target="_yV6Y9GvnwlzQ7EZrmGs-13" edge="1">
          <mxGeometry width="50" height="50" relative="1" as="geometry">
            <mxPoint x="18" y="450" as="sourcePoint" />
            <mxPoint x="-157" y="380" as="targetPoint" />
            <Array as="points">
              <mxPoint x="-193" y="420" />
            </Array>
          </mxGeometry>
        </mxCell>
        <mxCell id="_yV6Y9GvnwlzQ7EZrmGs-50" value="毎分10分毎 実行" style="edgeLabel;html=1;align=center;verticalAlign=middle;resizable=0;points=[];" parent="_yV6Y9GvnwlzQ7EZrmGs-49" vertex="1" connectable="0">
          <mxGeometry x="0.7394" relative="1" as="geometry">
            <mxPoint y="-8" as="offset" />
          </mxGeometry>
        </mxCell>
        <mxCell id="_yV6Y9GvnwlzQ7EZrmGs-51" value="&lt;p style=&quot;margin: 0px; font-variant-numeric: normal; font-variant-east-asian: normal; font-variant-alternates: normal; font-size-adjust: none; font-kerning: auto; font-optical-sizing: auto; font-feature-settings: normal; font-variation-settings: normal; font-variant-position: normal; font-stretch: normal; line-height: normal; color: rgb(0, 0, 0); text-align: start;&quot; class=&quot;p1&quot;&gt;/etc/scripts/msmtp_json.sh&lt;/p&gt;" style="rounded=1;arcSize=10;whiteSpace=wrap;html=1;align=center;spacingBottom=0;spacingTop=0;labelBackgroundColor=none;fillColor=default;strokeColor=#000000;fontColor=#182E3E;" parent="1" vertex="1">
          <mxGeometry x="-238" y="843" width="162" height="30" as="geometry" />
        </mxCell>
        <mxCell id="_yV6Y9GvnwlzQ7EZrmGs-52" value="" style="group" parent="1" vertex="1" connectable="0">
          <mxGeometry x="32" y="773" width="180" height="120" as="geometry" />
        </mxCell>
        <mxCell id="_yV6Y9GvnwlzQ7EZrmGs-30" value="&lt;font style=&quot;font-size: 15px;&quot;&gt;log&lt;/font&gt;" style="swimlane;fontStyle=1;childLayout=stackLayout;horizontal=1;startSize=30;horizontalStack=0;resizeParent=1;resizeParentMax=0;resizeLast=0;collapsible=1;marginBottom=0;whiteSpace=wrap;html=1;" parent="_yV6Y9GvnwlzQ7EZrmGs-52" vertex="1">
          <mxGeometry x="20" y="40" width="140" height="60" as="geometry" />
        </mxCell>
        <UserObject label="msmtp.log" id="_yV6Y9GvnwlzQ7EZrmGs-31">
          <mxCell style="text;strokeColor=none;fillColor=none;align=left;verticalAlign=middle;spacingLeft=4;spacingRight=4;overflow=hidden;points=[[0,0.5],[1,0.5]];portConstraint=eastwest;rotatable=0;whiteSpace=wrap;html=1;" parent="_yV6Y9GvnwlzQ7EZrmGs-30" vertex="1">
            <mxGeometry y="30" width="140" height="30" as="geometry" />
          </mxCell>
        </UserObject>
        <mxCell id="_yV6Y9GvnwlzQ7EZrmGs-35" value="&lt;font style=&quot;font-size: 15px;&quot;&gt;var&lt;/font&gt;" style="swimlane;whiteSpace=wrap;html=1;" parent="_yV6Y9GvnwlzQ7EZrmGs-52" vertex="1">
          <mxGeometry width="180" height="120" as="geometry" />
        </mxCell>
        <mxCell id="xPqBgnL-eaIDLJrNf_FH-167" value="&lt;font style=&quot;font-size: 12px;&quot;&gt;observation_monitor_manage.sh&lt;/font&gt;&lt;div style=&quot;&quot;&gt;&lt;font style=&quot;font-size: 12px;&quot;&gt;all&lt;/font&gt;&lt;/div&gt;" style="rounded=1;arcSize=10;whiteSpace=wrap;html=1;align=center;spacingBottom=-2;spacingTop=0;labelBackgroundColor=none;fillColor=default;strokeColor=#000000;fontColor=#182E3E;verticalAlign=middle;horizontal=1;spacing=2;" parent="1" vertex="1">
          <mxGeometry x="301" y="327.27000000000004" width="196" height="43.77" as="geometry" />
        </mxCell>
        <mxCell id="xPqBgnL-eaIDLJrNf_FH-198" value="" style="html=1;rounded=1;curved=0;sourcePerimeterSpacing=0;targetPerimeterSpacing=0;startSize=6;endSize=6;noEdgeStyle=1;orthogonal=1;entryX=1;entryY=0.5;entryDx=0;entryDy=0;exitX=0;exitY=0.5;exitDx=0;exitDy=0;" parent="1" source="xPqBgnL-eaIDLJrNf_FH-167" target="xPqBgnL-eaIDLJrNf_FH-2" edge="1">
          <mxGeometry relative="1" as="geometry">
            <mxPoint x="382" y="275.15" as="sourcePoint" />
            <mxPoint x="202" y="319.15" as="targetPoint" />
            <Array as="points">
              <mxPoint x="261" y="349.15" />
              <mxPoint x="221" y="399.15" />
            </Array>
          </mxGeometry>
        </mxCell>
        <mxCell id="xPqBgnL-eaIDLJrNf_FH-199" value="" style="html=1;rounded=1;curved=0;sourcePerimeterSpacing=0;targetPerimeterSpacing=0;startSize=6;endSize=6;noEdgeStyle=1;orthogonal=1;entryX=1;entryY=0.5;entryDx=0;entryDy=0;exitX=0;exitY=0.5;exitDx=0;exitDy=0;" parent="1" source="xPqBgnL-eaIDLJrNf_FH-167" target="xPqBgnL-eaIDLJrNf_FH-3" edge="1">
          <mxGeometry relative="1" as="geometry">
            <mxPoint x="392" y="285.15" as="sourcePoint" />
            <mxPoint x="212" y="329.15" as="targetPoint" />
            <Array as="points">
              <mxPoint x="261" y="349.15" />
              <mxPoint x="221" y="429.15" />
            </Array>
          </mxGeometry>
        </mxCell>
        <mxCell id="xPqBgnL-eaIDLJrNf_FH-200" value="" style="html=1;rounded=1;curved=0;sourcePerimeterSpacing=0;targetPerimeterSpacing=0;startSize=6;endSize=6;noEdgeStyle=1;orthogonal=1;entryX=1;entryY=0.5;entryDx=0;entryDy=0;exitX=0;exitY=0.5;exitDx=0;exitDy=0;" parent="1" source="xPqBgnL-eaIDLJrNf_FH-167" target="xPqBgnL-eaIDLJrNf_FH-4" edge="1">
          <mxGeometry relative="1" as="geometry">
            <mxPoint x="402" y="295.15" as="sourcePoint" />
            <mxPoint x="222" y="339.15" as="targetPoint" />
            <Array as="points">
              <mxPoint x="261" y="349.15" />
              <mxPoint x="231" y="459.15" />
            </Array>
          </mxGeometry>
        </mxCell>
        <mxCell id="_yV6Y9GvnwlzQ7EZrmGs-57" value="" style="endArrow=classic;html=1;rounded=1;curved=0;entryX=0.5;entryY=0;entryDx=0;entryDy=0;exitX=0;exitY=0.5;exitDx=0;exitDy=0;" parent="1" source="_yV6Y9GvnwlzQ7EZrmGs-44" target="_yV6Y9GvnwlzQ7EZrmGs-51" edge="1">
          <mxGeometry width="50" height="50" relative="1" as="geometry">
            <mxPoint x="-110" y="540" as="sourcePoint" />
            <mxPoint x="-147" y="382" as="targetPoint" />
            <Array as="points">
              <mxPoint x="-157" y="650" />
            </Array>
          </mxGeometry>
        </mxCell>
        <mxCell id="_yV6Y9GvnwlzQ7EZrmGs-58" value="毎日 0:00 実行" style="edgeLabel;html=1;align=center;verticalAlign=middle;resizable=0;points=[];" parent="_yV6Y9GvnwlzQ7EZrmGs-57" vertex="1" connectable="0">
          <mxGeometry x="0.7394" relative="1" as="geometry">
            <mxPoint y="17" as="offset" />
          </mxGeometry>
        </mxCell>
        <mxCell id="_yV6Y9GvnwlzQ7EZrmGs-64" value="" style="group" parent="1" vertex="1" connectable="0">
          <mxGeometry x="-690" y="360" width="380" height="920" as="geometry" />
        </mxCell>
        <mxCell id="_yV6Y9GvnwlzQ7EZrmGs-103" value="" style="group;fillColor=default;" parent="1" vertex="1" connectable="0">
          <mxGeometry x="-760" y="140" width="320" height="760" as="geometry" />
        </mxCell>
        <mxCell id="_yV6Y9GvnwlzQ7EZrmGs-73" value="" style="group" parent="_yV6Y9GvnwlzQ7EZrmGs-103" vertex="1" connectable="0">
          <mxGeometry x="60" y="120" width="200" height="150" as="geometry" />
        </mxCell>
        <mxCell id="_yV6Y9GvnwlzQ7EZrmGs-74" value="&lt;span style=&quot;font-size: 15px;&quot;&gt;HH_00_00&lt;/span&gt;" style="swimlane;whiteSpace=wrap;html=1;" parent="_yV6Y9GvnwlzQ7EZrmGs-73" vertex="1">
          <mxGeometry width="199.1304347826087" height="150" as="geometry" />
        </mxCell>
        <UserObject label="system.csv" id="_yV6Y9GvnwlzQ7EZrmGs-84">
          <mxCell style="text;strokeColor=none;fillColor=none;align=left;verticalAlign=middle;spacingLeft=4;spacingRight=4;overflow=hidden;points=[[0,0.5],[1,0.5]];portConstraint=eastwest;rotatable=0;whiteSpace=wrap;html=1;" parent="_yV6Y9GvnwlzQ7EZrmGs-74" vertex="1">
            <mxGeometry x="4" y="114" width="176" height="30" as="geometry" />
          </mxCell>
        </UserObject>
        <UserObject label="authpriv.csv" id="_yV6Y9GvnwlzQ7EZrmGs-80">
          <mxCell style="text;strokeColor=none;fillColor=none;align=left;verticalAlign=middle;spacingLeft=4;spacingRight=4;overflow=hidden;points=[[0,0.5],[1,0.5]];portConstraint=eastwest;rotatable=0;whiteSpace=wrap;html=1;" parent="_yV6Y9GvnwlzQ7EZrmGs-73" vertex="1">
            <mxGeometry x="4" y="24" width="176" height="30" as="geometry" />
          </mxCell>
        </UserObject>
        <UserObject label="MacTableEntry.csv" id="_yV6Y9GvnwlzQ7EZrmGs-81">
          <mxCell style="text;strokeColor=none;fillColor=none;align=left;verticalAlign=middle;spacingLeft=4;spacingRight=4;overflow=hidden;points=[[0,0.5],[1,0.5]];portConstraint=eastwest;rotatable=0;whiteSpace=wrap;html=1;" parent="_yV6Y9GvnwlzQ7EZrmGs-73" vertex="1">
            <mxGeometry x="4" y="54" width="176" height="30" as="geometry" />
          </mxCell>
        </UserObject>
        <UserObject label="system_HH_00_00.log" id="_yV6Y9GvnwlzQ7EZrmGs-82">
          <mxCell style="text;strokeColor=none;fillColor=none;align=left;verticalAlign=middle;spacingLeft=4;spacingRight=4;overflow=hidden;points=[[0,0.5],[1,0.5]];portConstraint=eastwest;rotatable=0;whiteSpace=wrap;html=1;" parent="_yV6Y9GvnwlzQ7EZrmGs-73" vertex="1">
            <mxGeometry x="4" y="84" width="176" height="30" as="geometry" />
          </mxCell>
        </UserObject>
        <mxCell id="_yV6Y9GvnwlzQ7EZrmGs-72" value="&lt;span style=&quot;font-size: 15px;&quot;&gt;YYYY-mm-dd&lt;/span&gt;" style="swimlane;whiteSpace=wrap;html=1;" parent="_yV6Y9GvnwlzQ7EZrmGs-103" vertex="1">
          <mxGeometry x="40" y="80" width="240" height="360" as="geometry" />
        </mxCell>
        <UserObject label="process_kill_YYYY-mm-dd.log" id="_yV6Y9GvnwlzQ7EZrmGs-79">
          <mxCell style="text;strokeColor=none;fillColor=none;align=left;verticalAlign=middle;spacingLeft=4;spacingRight=4;overflow=hidden;points=[[0,0.5],[1,0.5]];portConstraint=eastwest;rotatable=0;whiteSpace=wrap;html=1;" parent="_yV6Y9GvnwlzQ7EZrmGs-103" vertex="1">
            <mxGeometry x="60" y="400" width="200" height="30" as="geometry" />
          </mxCell>
        </UserObject>
        <UserObject label="CPU_util_YYYY-mm-dd.log.csv" id="_yV6Y9GvnwlzQ7EZrmGs-77">
          <mxCell style="text;strokeColor=none;fillColor=none;align=left;verticalAlign=middle;spacingLeft=4;spacingRight=4;overflow=hidden;points=[[0,0.5],[1,0.5]];portConstraint=eastwest;rotatable=0;whiteSpace=wrap;html=1;" parent="_yV6Y9GvnwlzQ7EZrmGs-103" vertex="1">
            <mxGeometry x="60" y="370" width="200" height="30" as="geometry" />
          </mxCell>
        </UserObject>
        <UserObject label="CPU_util_YYYY-mm-dd.log" id="_yV6Y9GvnwlzQ7EZrmGs-76">
          <mxCell style="text;strokeColor=none;fillColor=none;align=left;verticalAlign=middle;spacingLeft=4;spacingRight=4;overflow=hidden;points=[[0,0.5],[1,0.5]];portConstraint=eastwest;rotatable=0;whiteSpace=wrap;html=1;" parent="_yV6Y9GvnwlzQ7EZrmGs-103" vertex="1">
            <mxGeometry x="60" y="340" width="200" height="30" as="geometry" />
          </mxCell>
        </UserObject>
        <UserObject label="CPU_temp_YYYY-mm-dd.log.csv" id="_yV6Y9GvnwlzQ7EZrmGs-75">
          <mxCell style="text;strokeColor=none;fillColor=none;align=left;verticalAlign=middle;spacingLeft=4;spacingRight=4;overflow=hidden;points=[[0,0.5],[1,0.5]];portConstraint=eastwest;rotatable=0;whiteSpace=wrap;html=1;" parent="_yV6Y9GvnwlzQ7EZrmGs-103" vertex="1">
            <mxGeometry x="60" y="310" width="200" height="30" as="geometry" />
          </mxCell>
        </UserObject>
        <UserObject label="CPU_temp_YYYY-mm-dd.log" id="_yV6Y9GvnwlzQ7EZrmGs-62">
          <mxCell style="text;strokeColor=none;fillColor=none;align=left;verticalAlign=middle;spacingLeft=4;spacingRight=4;overflow=hidden;points=[[0,0.5],[1,0.5]];portConstraint=eastwest;rotatable=0;whiteSpace=wrap;html=1;" parent="_yV6Y9GvnwlzQ7EZrmGs-103" vertex="1">
            <mxGeometry x="60" y="280" width="200" height="30" as="geometry" />
          </mxCell>
        </UserObject>
        <mxCell id="_yV6Y9GvnwlzQ7EZrmGs-56" value="&lt;font style=&quot;font-size: 15px;&quot;&gt;archive&lt;/font&gt;" style="swimlane;whiteSpace=wrap;html=1;container=0;" parent="_yV6Y9GvnwlzQ7EZrmGs-103" vertex="1">
          <mxGeometry x="20" y="40" width="280" height="700" as="geometry" />
        </mxCell>
        <mxCell id="_yV6Y9GvnwlzQ7EZrmGs-70" value="&lt;font style=&quot;font-size: 15px;&quot;&gt;etc&lt;/font&gt;" style="swimlane;whiteSpace=wrap;html=1;" parent="_yV6Y9GvnwlzQ7EZrmGs-103" vertex="1">
          <mxGeometry width="320" height="760" as="geometry" />
        </mxCell>
        <mxCell id="_yV6Y9GvnwlzQ7EZrmGs-89" value="&lt;span style=&quot;font-size: 15px;&quot;&gt;disk_logger&lt;/span&gt;" style="swimlane;whiteSpace=wrap;html=1;container=0;" parent="_yV6Y9GvnwlzQ7EZrmGs-103" vertex="1">
          <mxGeometry x="40" y="450" width="240" height="60" as="geometry" />
        </mxCell>
        <UserObject label="disk_metrics_YYYY-mm.json" id="_yV6Y9GvnwlzQ7EZrmGs-94">
          <mxCell style="text;strokeColor=none;fillColor=none;align=left;verticalAlign=middle;spacingLeft=4;spacingRight=4;overflow=hidden;points=[[0,0.5],[1,0.5]];portConstraint=eastwest;rotatable=0;whiteSpace=wrap;html=1;" parent="_yV6Y9GvnwlzQ7EZrmGs-103" vertex="1">
            <mxGeometry x="60" y="477" width="200" height="30" as="geometry" />
          </mxCell>
        </UserObject>
        <mxCell id="_yV6Y9GvnwlzQ7EZrmGs-96" value="&lt;span style=&quot;font-size: 15px;&quot;&gt;interface_logger&lt;/span&gt;" style="swimlane;whiteSpace=wrap;html=1;container=0;" parent="_yV6Y9GvnwlzQ7EZrmGs-103" vertex="1">
          <mxGeometry x="40" y="520" width="240" height="180" as="geometry" />
        </mxCell>
        <UserObject label="br-lan_YYYY-mm-dd.log" id="_yV6Y9GvnwlzQ7EZrmGs-97">
          <mxCell style="text;strokeColor=none;fillColor=none;align=left;verticalAlign=middle;spacingLeft=4;spacingRight=4;overflow=hidden;points=[[0,0.5],[1,0.5]];portConstraint=eastwest;rotatable=0;whiteSpace=wrap;html=1;container=0;" parent="_yV6Y9GvnwlzQ7EZrmGs-103" vertex="1">
            <mxGeometry x="60" y="546" width="200" height="30" as="geometry" />
          </mxCell>
        </UserObject>
        <UserObject label="eth0_YYYY-mm-dd.log" id="_yV6Y9GvnwlzQ7EZrmGs-98">
          <mxCell style="text;strokeColor=none;fillColor=none;align=left;verticalAlign=middle;spacingLeft=4;spacingRight=4;overflow=hidden;points=[[0,0.5],[1,0.5]];portConstraint=eastwest;rotatable=0;whiteSpace=wrap;html=1;container=0;" parent="_yV6Y9GvnwlzQ7EZrmGs-103" vertex="1">
            <mxGeometry x="60" y="576" width="200" height="30" as="geometry" />
          </mxCell>
        </UserObject>
        <UserObject label="lo_YYYY-mm-dd.log" id="_yV6Y9GvnwlzQ7EZrmGs-99">
          <mxCell style="text;strokeColor=none;fillColor=none;align=left;verticalAlign=middle;spacingLeft=4;spacingRight=4;overflow=hidden;points=[[0,0.5],[1,0.5]];portConstraint=eastwest;rotatable=0;whiteSpace=wrap;html=1;container=0;" parent="_yV6Y9GvnwlzQ7EZrmGs-103" vertex="1">
            <mxGeometry x="60" y="606" width="200" height="30" as="geometry" />
          </mxCell>
        </UserObject>
        <UserObject label="rax0_YYYY-mm-dd.log" id="_yV6Y9GvnwlzQ7EZrmGs-100">
          <mxCell style="text;strokeColor=none;fillColor=none;align=left;verticalAlign=middle;spacingLeft=4;spacingRight=4;overflow=hidden;points=[[0,0.5],[1,0.5]];portConstraint=eastwest;rotatable=0;whiteSpace=wrap;html=1;container=0;" parent="_yV6Y9GvnwlzQ7EZrmGs-103" vertex="1">
            <mxGeometry x="60" y="636" width="200" height="30" as="geometry" />
          </mxCell>
        </UserObject>
        <UserObject label="tailscale0_YYYY-mm-dd.log" id="_yV6Y9GvnwlzQ7EZrmGs-101">
          <mxCell style="text;strokeColor=none;fillColor=none;align=left;verticalAlign=middle;spacingLeft=4;spacingRight=4;overflow=hidden;points=[[0,0.5],[1,0.5]];portConstraint=eastwest;rotatable=0;whiteSpace=wrap;html=1;container=0;" parent="_yV6Y9GvnwlzQ7EZrmGs-103" vertex="1">
            <mxGeometry x="60" y="666" width="200" height="30" as="geometry" />
          </mxCell>
        </UserObject>
        <UserObject label="msmtp_YYYY-mm.json" id="_yV6Y9GvnwlzQ7EZrmGs-102">
          <mxCell style="text;strokeColor=none;fillColor=none;align=left;verticalAlign=middle;spacingLeft=4;spacingRight=4;overflow=hidden;points=[[0,0.5],[1,0.5]];portConstraint=eastwest;rotatable=0;whiteSpace=wrap;html=1;" parent="_yV6Y9GvnwlzQ7EZrmGs-103" vertex="1">
            <mxGeometry x="60" y="703" width="200" height="30" as="geometry" />
          </mxCell>
        </UserObject>
        <mxCell id="_yV6Y9GvnwlzQ7EZrmGs-104" value="" style="endArrow=classic;html=1;rounded=1;curved=0;exitX=0;exitY=0.5;exitDx=0;exitDy=0;" parent="1" source="_yV6Y9GvnwlzQ7EZrmGs-51" target="_yV6Y9GvnwlzQ7EZrmGs-102" edge="1">
          <mxGeometry width="50" height="50" relative="1" as="geometry">
            <mxPoint x="9" y="549" as="sourcePoint" />
            <mxPoint x="-490" y="858" as="targetPoint" />
            <Array as="points">
              <mxPoint x="-310" y="858" />
            </Array>
          </mxGeometry>
        </mxCell>
        <mxCell id="_yV6Y9GvnwlzQ7EZrmGs-106" value="" style="endArrow=classic;html=1;rounded=1;curved=0;entryX=1;entryY=0.5;entryDx=0;entryDy=0;exitX=0;exitY=0.515;exitDx=0;exitDy=0;exitPerimeter=0;" parent="1" source="_yV6Y9GvnwlzQ7EZrmGs-13" target="_yV6Y9GvnwlzQ7EZrmGs-62" edge="1">
          <mxGeometry width="50" height="50" relative="1" as="geometry">
            <mxPoint x="-250" y="360" as="sourcePoint" />
            <mxPoint x="-410" y="435" as="targetPoint" />
            <Array as="points">
              <mxPoint x="-300" y="350" />
              <mxPoint x="-400" y="435" />
            </Array>
          </mxGeometry>
        </mxCell>
        <mxCell id="_yV6Y9GvnwlzQ7EZrmGs-108" value="" style="endArrow=classic;html=1;rounded=1;curved=0;entryX=1;entryY=0.5;entryDx=0;entryDy=0;exitX=-0.001;exitY=0.517;exitDx=0;exitDy=0;exitPerimeter=0;" parent="1" source="_yV6Y9GvnwlzQ7EZrmGs-13" target="_yV6Y9GvnwlzQ7EZrmGs-76" edge="1">
          <mxGeometry width="50" height="50" relative="1" as="geometry">
            <mxPoint x="-240" y="360" as="sourcePoint" />
            <mxPoint x="-490" y="445" as="targetPoint" />
            <Array as="points">
              <mxPoint x="-300" y="350" />
              <mxPoint x="-400" y="495" />
            </Array>
          </mxGeometry>
        </mxCell>
        <mxCell id="_yV6Y9GvnwlzQ7EZrmGs-109" value="" style="endArrow=classic;html=1;rounded=1;curved=0;entryX=1;entryY=0.5;entryDx=0;entryDy=0;exitX=0;exitY=0.518;exitDx=0;exitDy=0;exitPerimeter=0;" parent="1" source="_yV6Y9GvnwlzQ7EZrmGs-13" target="_yV6Y9GvnwlzQ7EZrmGs-79" edge="1">
          <mxGeometry width="50" height="50" relative="1" as="geometry">
            <mxPoint x="-240" y="360" as="sourcePoint" />
            <mxPoint x="-480" y="455" as="targetPoint" />
            <Array as="points">
              <mxPoint x="-300" y="350" />
              <mxPoint x="-400" y="555" />
            </Array>
          </mxGeometry>
        </mxCell>
        <mxCell id="_yV6Y9GvnwlzQ7EZrmGs-110" value="&lt;span style=&quot;color: rgb(31, 35, 40); text-align: start; background-color: rgb(246, 248, 250);&quot;&gt;&lt;font style=&quot;font-size: 12px;&quot; face=&quot;Helvetica&quot;&gt;systemlog_convert.sh&lt;/font&gt;&lt;/span&gt;" style="rounded=1;arcSize=10;whiteSpace=wrap;html=1;align=center;spacingBottom=2;spacingTop=0;labelBackgroundColor=none;fillColor=default;strokeColor=#000000;fontColor=#182E3E;" parent="1" vertex="1">
          <mxGeometry x="-340" y="270" width="140" height="30" as="geometry" />
        </mxCell>
        <mxCell id="_yV6Y9GvnwlzQ7EZrmGs-111" value="" style="endArrow=classic;html=1;rounded=1;entryX=1;entryY=0.5;entryDx=0;entryDy=0;curved=0;exitX=0;exitY=0.5;exitDx=0;exitDy=0;" parent="1" source="_yV6Y9GvnwlzQ7EZrmGs-44" target="_yV6Y9GvnwlzQ7EZrmGs-110" edge="1">
          <mxGeometry width="50" height="50" relative="1" as="geometry">
            <mxPoint x="9" y="549" as="sourcePoint" />
            <mxPoint x="-147" y="214" as="targetPoint" />
            <Array as="points">
              <mxPoint x="-60" y="470" />
              <mxPoint x="-60" y="380" />
              <mxPoint x="-60" y="285" />
              <mxPoint x="-100" y="285" />
              <mxPoint x="-147" y="285" />
            </Array>
          </mxGeometry>
        </mxCell>
        <mxCell id="_yV6Y9GvnwlzQ7EZrmGs-112" value="&amp;nbsp;毎日 23:59 実行&amp;nbsp;" style="edgeLabel;html=1;align=center;verticalAlign=middle;resizable=0;points=[];" parent="_yV6Y9GvnwlzQ7EZrmGs-111" vertex="1" connectable="0">
          <mxGeometry x="0.4756" y="1" relative="1" as="geometry">
            <mxPoint x="-39" y="-1" as="offset" />
          </mxGeometry>
        </mxCell>
        <mxCell id="_yV6Y9GvnwlzQ7EZrmGs-113" value="" style="endArrow=classic;html=1;rounded=1;curved=0;exitX=0.5;exitY=1;exitDx=0;exitDy=0;startArrow=classic;startFill=1;entryX=1;entryY=0.5;entryDx=0;entryDy=0;" parent="1" source="_yV6Y9GvnwlzQ7EZrmGs-110" target="_yV6Y9GvnwlzQ7EZrmGs-82" edge="1">
          <mxGeometry width="50" height="50" relative="1" as="geometry">
            <mxPoint x="-220" y="359" as="sourcePoint" />
            <mxPoint x="-510" y="389" as="targetPoint" />
            <Array as="points">
              <mxPoint x="-270" y="330" />
              <mxPoint x="-340" y="330" />
              <mxPoint x="-360" y="359" />
            </Array>
          </mxGeometry>
        </mxCell>
        <mxCell id="_yV6Y9GvnwlzQ7EZrmGs-114" value="" style="endArrow=classic;html=1;rounded=1;curved=0;exitX=0;exitY=0.5;exitDx=0;exitDy=0;startArrow=none;startFill=0;entryX=1;entryY=0.5;entryDx=0;entryDy=0;" parent="1" source="_yV6Y9GvnwlzQ7EZrmGs-110" target="_yV6Y9GvnwlzQ7EZrmGs-84" edge="1">
          <mxGeometry width="50" height="50" relative="1" as="geometry">
            <mxPoint x="-260" y="310" as="sourcePoint" />
            <mxPoint x="-460" y="410" as="targetPoint" />
            <Array as="points">
              <mxPoint x="-410" y="389" />
            </Array>
          </mxGeometry>
        </mxCell>
        <mxCell id="_yV6Y9GvnwlzQ7EZrmGs-115" value="" style="endArrow=classic;html=1;rounded=1;curved=0;exitX=0;exitY=0.5;exitDx=0;exitDy=0;startArrow=none;startFill=0;entryX=1;entryY=0.5;entryDx=0;entryDy=0;" parent="1" source="_yV6Y9GvnwlzQ7EZrmGs-110" target="_yV6Y9GvnwlzQ7EZrmGs-81" edge="1">
          <mxGeometry width="50" height="50" relative="1" as="geometry">
            <mxPoint x="-330" y="295" as="sourcePoint" />
            <mxPoint x="-500" y="399" as="targetPoint" />
            <Array as="points">
              <mxPoint x="-410" y="329" />
            </Array>
          </mxGeometry>
        </mxCell>
        <mxCell id="_yV6Y9GvnwlzQ7EZrmGs-116" value="" style="endArrow=classic;html=1;rounded=1;curved=0;exitX=0;exitY=0.5;exitDx=0;exitDy=0;startArrow=none;startFill=0;entryX=1;entryY=0.5;entryDx=0;entryDy=0;" parent="1" source="_yV6Y9GvnwlzQ7EZrmGs-110" target="_yV6Y9GvnwlzQ7EZrmGs-80" edge="1">
          <mxGeometry width="50" height="50" relative="1" as="geometry">
            <mxPoint x="-330" y="295" as="sourcePoint" />
            <mxPoint x="-500" y="339" as="targetPoint" />
            <Array as="points">
              <mxPoint x="-410" y="299" />
            </Array>
          </mxGeometry>
        </mxCell>
        <mxCell id="_yV6Y9GvnwlzQ7EZrmGs-117" value="&lt;span style=&quot;color: rgb(31, 35, 40); font-family: -apple-system, &amp;quot;system-ui&amp;quot;, &amp;quot;Segoe UI&amp;quot;, &amp;quot;Noto Sans&amp;quot;, Helvetica, Arial, sans-serif, &amp;quot;Apple Color Emoji&amp;quot;, &amp;quot;Segoe UI Emoji&amp;quot;; background-color: rgb(255, 255, 255);&quot;&gt;supervision_logging.sh&lt;/span&gt;&lt;div&gt;&lt;p style=&quot;margin: 0px; font-variant-numeric: normal; font-variant-east-asian: normal; font-variant-alternates: normal; font-size-adjust: none; font-kerning: auto; font-optical-sizing: auto; font-feature-settings: normal; font-variation-settings: normal; font-variant-position: normal; font-stretch: normal; line-height: normal; color: rgb(0, 0, 0);&quot; class=&quot;p1&quot;&gt;&lt;span style=&quot;background-color: rgb(255, 255, 255);&quot; class=&quot;s1&quot;&gt;disk&lt;/span&gt;_logger&lt;/p&gt;&lt;/div&gt;" style="rounded=1;arcSize=10;whiteSpace=wrap;html=1;align=center;spacingBottom=1;spacingTop=0;labelBackgroundColor=none;fillColor=default;strokeColor=#000000;fontColor=#182E3E;" parent="1" vertex="1">
          <mxGeometry x="-320" y="516.0799999999999" width="146" height="45.85" as="geometry" />
        </mxCell>
        <mxCell id="_yV6Y9GvnwlzQ7EZrmGs-118" value="" style="endArrow=classic;html=1;rounded=0;exitX=1;exitY=0.5;exitDx=0;exitDy=0;entryX=0;entryY=0.5;entryDx=0;entryDy=0;startArrow=classic;startFill=1;" parent="1" source="_yV6Y9GvnwlzQ7EZrmGs-51" target="_yV6Y9GvnwlzQ7EZrmGs-31" edge="1">
          <mxGeometry width="50" height="50" relative="1" as="geometry">
            <mxPoint x="40" y="670" as="sourcePoint" />
            <mxPoint x="50" y="670" as="targetPoint" />
          </mxGeometry>
        </mxCell>
        <mxCell id="_yV6Y9GvnwlzQ7EZrmGs-119" value="" style="group" parent="1" vertex="1" connectable="0">
          <mxGeometry y="590" width="240" height="36" as="geometry" />
        </mxCell>
        <mxCell id="_yV6Y9GvnwlzQ7EZrmGs-120" value="" style="rounded=1;whiteSpace=wrap;html=1;" parent="_yV6Y9GvnwlzQ7EZrmGs-119" vertex="1">
          <mxGeometry x="-1.263157894736842" width="240" height="36" as="geometry" />
        </mxCell>
        <mxCell id="_yV6Y9GvnwlzQ7EZrmGs-121" value="" style="shape=image;html=1;verticalLabelPosition=bottom;verticalAlign=top;imageAspect=1;aspect=fixed;image=img/clipart/Gear_128x128.png;container=0;labelBackgroundColor=none;fillColor=none;strokeColor=#BAC8D3;fontColor=#182E3E;" parent="_yV6Y9GvnwlzQ7EZrmGs-119" vertex="1">
          <mxGeometry x="71.84210526315789" y="4.150000000000006" width="23.62" height="27.7" as="geometry" />
        </mxCell>
        <mxCell id="_yV6Y9GvnwlzQ7EZrmGs-122" value="system" style="text;html=1;align=center;verticalAlign=middle;resizable=0;points=[];autosize=1;strokeColor=none;fillColor=none;fontSize=17;labelBackgroundColor=none;fontColor=#182E3E;fontStyle=1" parent="_yV6Y9GvnwlzQ7EZrmGs-119" vertex="1">
          <mxGeometry x="100.99789473684208" y="2.9999999999999942" width="80" height="30" as="geometry" />
        </mxCell>
        <mxCell id="_yV6Y9GvnwlzQ7EZrmGs-128" value="" style="endArrow=classic;html=1;rounded=1;curved=0;entryX=1;entryY=0.5;entryDx=0;entryDy=0;exitX=0;exitY=0.5;exitDx=0;exitDy=0;" parent="1" source="_yV6Y9GvnwlzQ7EZrmGs-44" target="_yV6Y9GvnwlzQ7EZrmGs-117" edge="1">
          <mxGeometry width="50" height="50" relative="1" as="geometry">
            <mxPoint x="9" y="549" as="sourcePoint" />
            <mxPoint x="-147" y="853" as="targetPoint" />
            <Array as="points" />
          </mxGeometry>
        </mxCell>
        <mxCell id="_yV6Y9GvnwlzQ7EZrmGs-129" value="&amp;nbsp;毎日 0:00 実行&amp;nbsp;" style="edgeLabel;html=1;align=center;verticalAlign=middle;resizable=0;points=[];labelBackgroundColor=default;" parent="_yV6Y9GvnwlzQ7EZrmGs-128" vertex="1" connectable="0">
          <mxGeometry x="0.7394" relative="1" as="geometry">
            <mxPoint x="50" as="offset" />
          </mxGeometry>
        </mxCell>
        <mxCell id="_yV6Y9GvnwlzQ7EZrmGs-130" value="" style="endArrow=classic;html=1;rounded=1;curved=0;exitX=0;exitY=0.5;exitDx=0;exitDy=0;entryX=1;entryY=0.5;entryDx=0;entryDy=0;" parent="1" source="_yV6Y9GvnwlzQ7EZrmGs-117" target="_yV6Y9GvnwlzQ7EZrmGs-94" edge="1">
          <mxGeometry width="50" height="50" relative="1" as="geometry">
            <mxPoint x="9" y="549" as="sourcePoint" />
            <mxPoint x="-490" y="640" as="targetPoint" />
            <Array as="points">
              <mxPoint x="-340" y="539" />
              <mxPoint x="-400" y="632" />
            </Array>
          </mxGeometry>
        </mxCell>
        <mxCell id="_yV6Y9GvnwlzQ7EZrmGs-132" value="&lt;span style=&quot;color: rgb(31, 35, 40); font-family: -apple-system, &amp;quot;system-ui&amp;quot;, &amp;quot;Segoe UI&amp;quot;, &amp;quot;Noto Sans&amp;quot;, Helvetica, Arial, sans-serif, &amp;quot;Apple Color Emoji&amp;quot;, &amp;quot;Segoe UI Emoji&amp;quot;; background-color: rgb(255, 255, 255);&quot;&gt;supervision_logging.sh&lt;/span&gt;&lt;div&gt;&lt;p style=&quot;margin: 0px; font-variant-numeric: normal; font-variant-east-asian: normal; font-variant-alternates: normal; font-size-adjust: none; font-kerning: auto; font-optical-sizing: auto; font-feature-settings: normal; font-variation-settings: normal; font-variant-position: normal; font-stretch: normal; line-height: normal; color: rgb(0, 0, 0);&quot; class=&quot;p1&quot;&gt;csv_conversion&lt;/p&gt;&lt;/div&gt;" style="rounded=1;arcSize=10;whiteSpace=wrap;html=1;align=center;spacingBottom=1;spacingTop=0;labelBackgroundColor=none;fillColor=default;strokeColor=#000000;fontColor=#182E3E;" parent="1" vertex="1">
          <mxGeometry x="-320" y="442.07000000000005" width="146" height="45.85" as="geometry" />
        </mxCell>
        <mxCell id="_yV6Y9GvnwlzQ7EZrmGs-133" value="" style="endArrow=classic;html=1;rounded=1;curved=0;exitX=0;exitY=0.5;exitDx=0;exitDy=0;entryX=1;entryY=0.5;entryDx=0;entryDy=0;" parent="1" source="_yV6Y9GvnwlzQ7EZrmGs-132" target="_yV6Y9GvnwlzQ7EZrmGs-75" edge="1">
          <mxGeometry width="50" height="50" relative="1" as="geometry">
            <mxPoint x="-220" y="359" as="sourcePoint" />
            <mxPoint x="-490" y="445" as="targetPoint" />
            <Array as="points">
              <mxPoint x="-390" y="465" />
            </Array>
          </mxGeometry>
        </mxCell>
        <mxCell id="_yV6Y9GvnwlzQ7EZrmGs-134" value="" style="endArrow=classic;html=1;rounded=1;curved=0;exitX=0;exitY=0.5;exitDx=0;exitDy=0;entryX=1;entryY=0.5;entryDx=0;entryDy=0;" parent="1" source="_yV6Y9GvnwlzQ7EZrmGs-132" target="_yV6Y9GvnwlzQ7EZrmGs-77" edge="1">
          <mxGeometry width="50" height="50" relative="1" as="geometry">
            <mxPoint x="-310" y="475" as="sourcePoint" />
            <mxPoint x="-490" y="475" as="targetPoint" />
            <Array as="points">
              <mxPoint x="-370" y="465" />
              <mxPoint x="-400" y="525" />
            </Array>
          </mxGeometry>
        </mxCell>
        <mxCell id="_yV6Y9GvnwlzQ7EZrmGs-135" value="" style="endArrow=classic;html=1;rounded=1;curved=0;entryX=1;entryY=0.5;entryDx=0;entryDy=0;exitX=0;exitY=0.5;exitDx=0;exitDy=0;" parent="1" source="_yV6Y9GvnwlzQ7EZrmGs-44" target="_yV6Y9GvnwlzQ7EZrmGs-132" edge="1">
          <mxGeometry width="50" height="50" relative="1" as="geometry">
            <mxPoint y="540" as="sourcePoint" />
            <mxPoint x="-147" y="382" as="targetPoint" />
            <Array as="points">
              <mxPoint x="-140" y="465" />
            </Array>
          </mxGeometry>
        </mxCell>
        <mxCell id="_yV6Y9GvnwlzQ7EZrmGs-136" value="&amp;nbsp;毎日 23:59 実行&amp;nbsp;" style="edgeLabel;html=1;align=center;verticalAlign=middle;resizable=0;points=[];" parent="_yV6Y9GvnwlzQ7EZrmGs-135" vertex="1" connectable="0">
          <mxGeometry x="0.7394" relative="1" as="geometry">
            <mxPoint x="18" y="35" as="offset" />
          </mxGeometry>
        </mxCell>
        <mxCell id="_yV6Y9GvnwlzQ7EZrmGs-139" value="&lt;span style=&quot;color: rgb(31, 35, 40); font-family: -apple-system, &amp;quot;system-ui&amp;quot;, &amp;quot;Segoe UI&amp;quot;, &amp;quot;Noto Sans&amp;quot;, Helvetica, Arial, sans-serif, &amp;quot;Apple Color Emoji&amp;quot;, &amp;quot;Segoe UI Emoji&amp;quot;; background-color: rgb(255, 255, 255);&quot;&gt;supervision_logging.sh&lt;/span&gt;&lt;div&gt;&lt;p style=&quot;margin: 0px; font-variant-numeric: normal; font-variant-east-asian: normal; font-variant-alternates: normal; font-size-adjust: none; font-kerning: auto; font-optical-sizing: auto; font-feature-settings: normal; font-variation-settings: normal; font-variant-position: normal; font-stretch: normal; line-height: normal; color: rgb(0, 0, 0);&quot; class=&quot;p1&quot;&gt;traffic_logger&lt;/p&gt;&lt;/div&gt;" style="rounded=1;arcSize=10;whiteSpace=wrap;html=1;align=center;spacingBottom=1;spacingTop=0;labelBackgroundColor=none;fillColor=default;strokeColor=#000000;fontColor=#182E3E;" parent="1" vertex="1">
          <mxGeometry x="-320" y="614.1499999999999" width="146" height="45.85" as="geometry" />
        </mxCell>
        <mxCell id="_yV6Y9GvnwlzQ7EZrmGs-140" value="" style="endArrow=classic;html=1;rounded=1;curved=0;entryX=0.5;entryY=0;entryDx=0;entryDy=0;exitX=0;exitY=0.5;exitDx=0;exitDy=0;" parent="1" source="_yV6Y9GvnwlzQ7EZrmGs-44" target="_yV6Y9GvnwlzQ7EZrmGs-139" edge="1">
          <mxGeometry width="50" height="50" relative="1" as="geometry">
            <mxPoint x="9" y="549" as="sourcePoint" />
            <mxPoint x="-136" y="549" as="targetPoint" />
            <Array as="points">
              <mxPoint x="-130" y="590" />
              <mxPoint x="-247" y="590" />
            </Array>
          </mxGeometry>
        </mxCell>
        <mxCell id="_yV6Y9GvnwlzQ7EZrmGs-141" value="&amp;nbsp;毎日 23:59 実行&amp;nbsp;" style="edgeLabel;html=1;align=center;verticalAlign=middle;resizable=0;points=[];labelBackgroundColor=default;" parent="_yV6Y9GvnwlzQ7EZrmGs-140" vertex="1" connectable="0">
          <mxGeometry x="0.7394" relative="1" as="geometry">
            <mxPoint x="42" as="offset" />
          </mxGeometry>
        </mxCell>
        <mxCell id="_yV6Y9GvnwlzQ7EZrmGs-142" value="" style="endArrow=classic;html=1;rounded=1;curved=0;entryX=0;entryY=0.75;entryDx=0;entryDy=0;startArrow=classic;startFill=1;exitX=1;exitY=0.5;exitDx=0;exitDy=0;" parent="1" source="_yV6Y9GvnwlzQ7EZrmGs-139" target="_yV6Y9GvnwlzQ7EZrmGs-120" edge="1">
          <mxGeometry width="50" height="50" relative="1" as="geometry">
            <mxPoint x="-170" y="649" as="sourcePoint" />
            <mxPoint x="-164" y="623" as="targetPoint" />
            <Array as="points">
              <mxPoint x="-100" y="637" />
              <mxPoint x="-70" y="617" />
            </Array>
          </mxGeometry>
        </mxCell>
        <mxCell id="_yV6Y9GvnwlzQ7EZrmGs-145" value="" style="endArrow=classic;html=1;rounded=1;curved=0;entryX=0.75;entryY=1;entryDx=0;entryDy=0;startArrow=classic;startFill=1;exitX=0;exitY=0.278;exitDx=0;exitDy=0;exitPerimeter=0;" parent="1" source="_yV6Y9GvnwlzQ7EZrmGs-120" target="_yV6Y9GvnwlzQ7EZrmGs-13" edge="1">
          <mxGeometry width="50" height="50" relative="1" as="geometry">
            <mxPoint x="-1" y="600" as="sourcePoint" />
            <mxPoint x="-147" y="382" as="targetPoint" />
            <Array as="points">
              <mxPoint x="-30" y="600" />
              <mxPoint x="-30" y="520" />
              <mxPoint x="-120" y="420" />
            </Array>
          </mxGeometry>
        </mxCell>
        <mxCell id="_yV6Y9GvnwlzQ7EZrmGs-147" value="" style="endArrow=classic;html=1;rounded=1;curved=0;exitX=0;exitY=0.5;exitDx=0;exitDy=0;entryX=1;entryY=0.5;entryDx=0;entryDy=0;" parent="1" source="_yV6Y9GvnwlzQ7EZrmGs-139" target="_yV6Y9GvnwlzQ7EZrmGs-97" edge="1">
          <mxGeometry width="50" height="50" relative="1" as="geometry">
            <mxPoint x="-282" y="549" as="sourcePoint" />
            <mxPoint x="-490" y="642" as="targetPoint" />
            <Array as="points">
              <mxPoint x="-360" y="637" />
              <mxPoint x="-400" y="701" />
            </Array>
          </mxGeometry>
        </mxCell>
        <mxCell id="_yV6Y9GvnwlzQ7EZrmGs-150" value="" style="endArrow=classic;html=1;rounded=1;curved=0;exitX=0;exitY=0.5;exitDx=0;exitDy=0;entryX=1;entryY=0.5;entryDx=0;entryDy=0;" parent="1" source="_yV6Y9GvnwlzQ7EZrmGs-139" target="_yV6Y9GvnwlzQ7EZrmGs-98" edge="1">
          <mxGeometry width="50" height="50" relative="1" as="geometry">
            <mxPoint x="-310" y="623" as="sourcePoint" />
            <mxPoint x="-490" y="711" as="targetPoint" />
            <Array as="points">
              <mxPoint x="-360" y="637" />
              <mxPoint x="-400" y="731" />
            </Array>
          </mxGeometry>
        </mxCell>
        <mxCell id="_yV6Y9GvnwlzQ7EZrmGs-151" value="" style="endArrow=classic;html=1;rounded=1;curved=0;entryX=1;entryY=0.5;entryDx=0;entryDy=0;exitX=0;exitY=0.5;exitDx=0;exitDy=0;" parent="1" source="_yV6Y9GvnwlzQ7EZrmGs-139" target="_yV6Y9GvnwlzQ7EZrmGs-99" edge="1">
          <mxGeometry width="50" height="50" relative="1" as="geometry">
            <mxPoint x="-310" y="623" as="sourcePoint" />
            <mxPoint x="-490" y="741" as="targetPoint" />
            <Array as="points">
              <mxPoint x="-360" y="637" />
              <mxPoint x="-400" y="760" />
            </Array>
          </mxGeometry>
        </mxCell>
        <mxCell id="_yV6Y9GvnwlzQ7EZrmGs-152" value="" style="endArrow=classic;html=1;rounded=1;curved=0;exitX=0;exitY=0.5;exitDx=0;exitDy=0;entryX=1;entryY=0.5;entryDx=0;entryDy=0;" parent="1" source="_yV6Y9GvnwlzQ7EZrmGs-139" target="_yV6Y9GvnwlzQ7EZrmGs-100" edge="1">
          <mxGeometry width="50" height="50" relative="1" as="geometry">
            <mxPoint x="-300" y="633" as="sourcePoint" />
            <mxPoint x="-480" y="751" as="targetPoint" />
            <Array as="points">
              <mxPoint x="-360" y="637" />
              <mxPoint x="-400" y="791" />
            </Array>
          </mxGeometry>
        </mxCell>
        <mxCell id="_yV6Y9GvnwlzQ7EZrmGs-153" value="" style="endArrow=classic;html=1;rounded=1;curved=0;exitX=0;exitY=0.5;exitDx=0;exitDy=0;entryX=1;entryY=0.5;entryDx=0;entryDy=0;" parent="1" source="_yV6Y9GvnwlzQ7EZrmGs-139" target="_yV6Y9GvnwlzQ7EZrmGs-101" edge="1">
          <mxGeometry width="50" height="50" relative="1" as="geometry">
            <mxPoint x="-290" y="643" as="sourcePoint" />
            <mxPoint x="-470" y="761" as="targetPoint" />
            <Array as="points">
              <mxPoint x="-360" y="637" />
              <mxPoint x="-400" y="820" />
            </Array>
          </mxGeometry>
        </mxCell>
        <mxCell id="_yV6Y9GvnwlzQ7EZrmGs-155" value="" style="endArrow=classic;html=1;rounded=1;curved=0;entryX=0.5;entryY=0;entryDx=0;entryDy=0;exitX=1;exitY=0.5;exitDx=0;exitDy=0;" parent="1" source="_yV6Y9GvnwlzQ7EZrmGs-44" target="_yV6Y9GvnwlzQ7EZrmGs-159" edge="1">
          <mxGeometry width="50" height="50" relative="1" as="geometry">
            <mxPoint x="249" y="549" as="sourcePoint" />
            <mxPoint x="409" y="381" as="targetPoint" />
            <Array as="points">
              <mxPoint x="400" y="539" />
            </Array>
          </mxGeometry>
        </mxCell>
        <mxCell id="_yV6Y9GvnwlzQ7EZrmGs-159" value="&lt;p style=&quot;margin: 0px; font-variant-numeric: normal; font-variant-east-asian: normal; font-variant-alternates: normal; font-size-adjust: none; font-kerning: auto; font-optical-sizing: auto; font-feature-settings: normal; font-variation-settings: normal; font-variant-position: normal; font-stretch: normal; line-height: normal; color: rgb(0, 0, 0); text-align: start;&quot; class=&quot;p1&quot;&gt;sendmailer.sh&lt;/p&gt;" style="rounded=1;arcSize=10;whiteSpace=wrap;html=1;align=center;spacingBottom=0;spacingTop=0;labelBackgroundColor=none;fillColor=default;strokeColor=#000000;fontColor=#182E3E;" parent="1" vertex="1">
          <mxGeometry x="350" y="593" width="100" height="30" as="geometry" />
        </mxCell>
        <mxCell id="_yV6Y9GvnwlzQ7EZrmGs-160" value="毎日 0:01 実行" style="edgeLabel;html=1;align=center;verticalAlign=middle;resizable=0;points=[];" parent="1" vertex="1" connectable="0">
          <mxGeometry x="399.99782308245017" y="566.0017880107577" as="geometry" />
        </mxCell>
        <mxCell id="_yV6Y9GvnwlzQ7EZrmGs-161" value="" style="endArrow=classic;html=1;rounded=1;curved=0;exitX=0.5;exitY=1;exitDx=0;exitDy=0;" parent="1" source="_yV6Y9GvnwlzQ7EZrmGs-159" target="_yV6Y9GvnwlzQ7EZrmGs-181" edge="1">
          <mxGeometry width="50" height="50" relative="1" as="geometry">
            <mxPoint x="249" y="549" as="sourcePoint" />
            <mxPoint x="238.73684210526312" y="678" as="targetPoint" />
            <Array as="points">
              <mxPoint x="400" y="678" />
            </Array>
          </mxGeometry>
        </mxCell>
        <mxCell id="_yV6Y9GvnwlzQ7EZrmGs-162" value="/etc/archive を tar アーカイブに変換" style="edgeLabel;html=1;align=center;verticalAlign=middle;resizable=0;points=[];" parent="1" vertex="1" connectable="0">
          <mxGeometry x="399.99782308245017" y="650.0017880107577" as="geometry" />
        </mxCell>
        <mxCell id="_yV6Y9GvnwlzQ7EZrmGs-165" value="" style="endArrow=classic;html=1;rounded=1;curved=0;exitX=1;exitY=0.5;exitDx=0;exitDy=0;entryX=1;entryY=0.75;entryDx=0;entryDy=0;" parent="1" source="_yV6Y9GvnwlzQ7EZrmGs-169" target="_yV6Y9GvnwlzQ7EZrmGs-30" edge="1">
          <mxGeometry width="50" height="50" relative="1" as="geometry">
            <mxPoint x="118.73684210526312" y="696" as="sourcePoint" />
            <mxPoint x="220" y="858" as="targetPoint" />
            <Array as="points">
              <mxPoint x="119" y="740" />
              <mxPoint x="200" y="740" />
              <mxPoint x="280" y="740" />
              <mxPoint x="280" y="858" />
              <mxPoint x="230" y="858" />
            </Array>
          </mxGeometry>
        </mxCell>
        <mxCell id="_yV6Y9GvnwlzQ7EZrmGs-180" value="" style="group" parent="1" vertex="1" connectable="0">
          <mxGeometry y="660" width="240" height="36" as="geometry" />
        </mxCell>
        <mxCell id="_yV6Y9GvnwlzQ7EZrmGs-181" value="" style="rounded=1;whiteSpace=wrap;html=1;" parent="_yV6Y9GvnwlzQ7EZrmGs-180" vertex="1">
          <mxGeometry x="-1.263157894736842" width="240" height="36" as="geometry" />
        </mxCell>
        <mxCell id="_yV6Y9GvnwlzQ7EZrmGs-182" value="" style="shape=image;html=1;verticalLabelPosition=bottom;verticalAlign=top;imageAspect=1;aspect=fixed;image=img/clipart/Gear_128x128.png;container=0;labelBackgroundColor=none;fillColor=none;strokeColor=#BAC8D3;fontColor=#182E3E;" parent="_yV6Y9GvnwlzQ7EZrmGs-180" vertex="1">
          <mxGeometry x="83.84210526315789" y="4.150000000000006" width="23.62" height="27.7" as="geometry" />
        </mxCell>
        <mxCell id="_yV6Y9GvnwlzQ7EZrmGs-183" value="mutt" style="text;html=1;align=center;verticalAlign=middle;resizable=0;points=[];autosize=1;strokeColor=none;fillColor=none;fontSize=17;labelBackgroundColor=none;fontColor=#182E3E;fontStyle=1" parent="_yV6Y9GvnwlzQ7EZrmGs-180" vertex="1">
          <mxGeometry x="106.99789473684208" y="2.9999999999999942" width="60" height="30" as="geometry" />
        </mxCell>
        <mxCell id="_yV6Y9GvnwlzQ7EZrmGs-184" value="" style="endArrow=classic;html=1;rounded=1;curved=0;entryX=0;entryY=0.5;entryDx=0;entryDy=0;startArrow=classic;startFill=1;exitX=0.5;exitY=0;exitDx=0;exitDy=0;" parent="1" source="_yV6Y9GvnwlzQ7EZrmGs-169" target="_yV6Y9GvnwlzQ7EZrmGs-181" edge="1">
          <mxGeometry width="50" height="50" relative="1" as="geometry">
            <mxPoint x="-70" y="690" as="sourcePoint" />
            <mxPoint x="9" y="627" as="targetPoint" />
            <Array as="points">
              <mxPoint x="-65" y="678" />
              <mxPoint x="-40" y="678" />
            </Array>
          </mxGeometry>
        </mxCell>
        <mxCell id="_yV6Y9GvnwlzQ7EZrmGs-187" value="" style="group" parent="1" vertex="1" connectable="0">
          <mxGeometry x="-130" y="722" width="130" height="36" as="geometry" />
        </mxCell>
        <mxCell id="_yV6Y9GvnwlzQ7EZrmGs-169" value="" style="rounded=1;whiteSpace=wrap;html=1;container=0;" parent="_yV6Y9GvnwlzQ7EZrmGs-187" vertex="1">
          <mxGeometry width="130" height="36" as="geometry" />
        </mxCell>
        <mxCell id="_yV6Y9GvnwlzQ7EZrmGs-170" value="" style="shape=image;html=1;verticalLabelPosition=bottom;verticalAlign=top;imageAspect=1;aspect=fixed;image=img/clipart/Gear_128x128.png;container=0;labelBackgroundColor=none;fillColor=none;strokeColor=#BAC8D3;fontColor=#182E3E;" parent="_yV6Y9GvnwlzQ7EZrmGs-187" vertex="1">
          <mxGeometry x="13.84210526315789" y="4.149999999999977" width="23.62" height="27.7" as="geometry" />
        </mxCell>
        <mxCell id="_yV6Y9GvnwlzQ7EZrmGs-186" value="&lt;span style=&quot;color: rgb(0, 0, 0); text-align: start; text-wrap: wrap;&quot;&gt;msmtprc&lt;/span&gt;" style="text;html=1;align=center;verticalAlign=middle;resizable=0;points=[];autosize=1;strokeColor=none;fillColor=none;fontSize=17;labelBackgroundColor=none;fontColor=#182E3E;fontStyle=1" parent="_yV6Y9GvnwlzQ7EZrmGs-187" vertex="1">
          <mxGeometry x="37.45789473684208" y="3" width="90" height="30" as="geometry" />
        </mxCell>
        <mxCell id="y2H6FnZq0eTIAelqhirX-2" value="monitor_site_renew.sh" style="rounded=1;arcSize=10;whiteSpace=wrap;html=1;align=center;spacingBottom=-2;spacingTop=0;fillColor=default;strokeColor=#000000;verticalAlign=middle;horizontal=1;spacing=2;" parent="1" vertex="1">
          <mxGeometry x="329.5" y="234.07999999999998" width="139" height="30.15" as="geometry" />
        </mxCell>
        <mxCell id="y2H6FnZq0eTIAelqhirX-3" value="" style="endArrow=classic;html=1;rounded=1;curved=0;entryX=0.5;entryY=1;entryDx=0;entryDy=0;exitX=1;exitY=0.5;exitDx=0;exitDy=0;" parent="1" source="_yV6Y9GvnwlzQ7EZrmGs-44" target="y2H6FnZq0eTIAelqhirX-2" edge="1">
          <mxGeometry width="50" height="50" relative="1" as="geometry">
            <mxPoint x="249" y="549" as="sourcePoint" />
            <mxPoint x="410" y="603" as="targetPoint" />
            <Array as="points">
              <mxPoint x="290" y="539" />
              <mxPoint x="290" y="300" />
              <mxPoint x="399" y="300" />
            </Array>
          </mxGeometry>
        </mxCell>
        <mxCell id="y2H6FnZq0eTIAelqhirX-4" value="毎月1日 実行" style="edgeLabel;html=1;align=center;verticalAlign=middle;resizable=0;points=[];" parent="1" vertex="1" connectable="0">
          <mxGeometry x="289.9958502634679" y="472.8884605154975" as="geometry" />
        </mxCell>
        <mxCell id="y2H6FnZq0eTIAelqhirX-5" value="" style="endArrow=none;html=1;rounded=1;curved=0;entryX=0;entryY=0.5;entryDx=0;entryDy=0;startArrow=none;startFill=0;endFill=0;" parent="1" target="y2H6FnZq0eTIAelqhirX-2" edge="1">
          <mxGeometry width="50" height="50" relative="1" as="geometry">
            <mxPoint x="270" y="349" as="sourcePoint" />
            <mxPoint x="409" y="274" as="targetPoint" />
            <Array as="points">
              <mxPoint x="275" y="349" />
              <mxPoint x="275" y="249" />
            </Array>
          </mxGeometry>
        </mxCell>
        <mxCell id="y2H6FnZq0eTIAelqhirX-6" value="" style="endArrow=none;html=1;rounded=1;curved=0;entryX=0;entryY=0.5;entryDx=0;entryDy=0;startArrow=none;startFill=0;endFill=0;" parent="1" target="y2H6FnZq0eTIAelqhirX-2" edge="1">
          <mxGeometry width="50" height="50" relative="1" as="geometry">
            <mxPoint x="262" y="347" as="sourcePoint" />
            <mxPoint x="330" y="249" as="targetPoint" />
            <Array as="points">
              <mxPoint x="267" y="349" />
              <mxPoint x="275" y="349" />
              <mxPoint x="275" y="249" />
            </Array>
          </mxGeometry>
        </mxCell>
        <mxCell id="zP-hTqinAc85et47i04e-1" value="" style="group;fillColor=default;container=0;" vertex="1" connectable="0" parent="1">
          <mxGeometry x="570" y="513" width="190" height="190" as="geometry" />
        </mxCell>
        <mxCell id="zP-hTqinAc85et47i04e-8" value="&lt;span style=&quot;font-size: 15px;&quot;&gt;data&lt;/span&gt;" style="swimlane;whiteSpace=wrap;html=1;container=0;" vertex="1" parent="1">
          <mxGeometry x="610" y="593" width="110" height="70" as="geometry" />
        </mxCell>
        <mxCell id="zP-hTqinAc85et47i04e-14" value="&lt;font style=&quot;font-size: 15px;&quot;&gt;AdGuardHome&lt;/font&gt;" style="swimlane;whiteSpace=wrap;html=1;container=0;" vertex="1" parent="1">
          <mxGeometry x="590" y="553" width="150" height="130" as="geometry" />
        </mxCell>
        <mxCell id="zP-hTqinAc85et47i04e-15" value="&lt;font style=&quot;font-size: 15px;&quot;&gt;etc&lt;/font&gt;" style="swimlane;whiteSpace=wrap;html=1;container=0;" vertex="1" parent="1">
          <mxGeometry x="570" y="513" width="190" height="190" as="geometry" />
        </mxCell>
        <UserObject label="querylog.json" id="zP-hTqinAc85et47i04e-36">
          <mxCell style="text;strokeColor=none;fillColor=none;align=left;verticalAlign=middle;spacingLeft=4;spacingRight=4;overflow=hidden;points=[[0,0.5],[1,0.5]];portConstraint=eastwest;rotatable=0;whiteSpace=wrap;html=1;" vertex="1" parent="zP-hTqinAc85et47i04e-15">
            <mxGeometry x="50" y="110" width="90" height="30" as="geometry" />
          </mxCell>
        </UserObject>
        <mxCell id="zP-hTqinAc85et47i04e-25" value="" style="endArrow=classic;html=1;rounded=1;curved=0;exitX=0.5;exitY=1;exitDx=0;exitDy=0;" edge="1" parent="1" source="zP-hTqinAc85et47i04e-29">
          <mxGeometry width="50" height="50" relative="1" as="geometry">
            <mxPoint x="410" y="633" as="sourcePoint" />
            <mxPoint x="610" y="638" as="targetPoint" />
            <Array as="points">
              <mxPoint x="495" y="638" />
            </Array>
          </mxGeometry>
        </mxCell>
        <mxCell id="zP-hTqinAc85et47i04e-27" value="&lt;font style=&quot;font-size: 11px;&quot;&gt;&lt;span style=&quot;text-align: left; text-wrap-mode: wrap; background-color: rgb(251, 251, 251);&quot;&gt;querylog.json&lt;/span&gt;&amp;nbsp;を&lt;/font&gt;&lt;div&gt;&lt;font style=&quot;font-size: 11px;&quot;&gt;tar アーカイブに&lt;/font&gt;変換&lt;/div&gt;" style="edgeLabel;html=1;align=center;verticalAlign=middle;resizable=0;points=[];" vertex="1" connectable="0" parent="1">
          <mxGeometry x="495.99782308245017" y="530.0017880107577" as="geometry" />
        </mxCell>
        <mxCell id="zP-hTqinAc85et47i04e-28" value="" style="endArrow=classic;html=1;rounded=1;curved=0;entryX=1;entryY=0.5;entryDx=0;entryDy=0;" edge="1" parent="1" target="_yV6Y9GvnwlzQ7EZrmGs-181">
          <mxGeometry width="50" height="50" relative="1" as="geometry">
            <mxPoint x="665" y="663" as="sourcePoint" />
            <mxPoint x="249" y="688" as="targetPoint" />
            <Array as="points">
              <mxPoint x="665" y="720" />
              <mxPoint x="400" y="720" />
              <mxPoint x="400" y="678" />
            </Array>
          </mxGeometry>
        </mxCell>
        <mxCell id="zP-hTqinAc85et47i04e-29" value="&lt;p style=&quot;margin: 0px; font-variant-numeric: normal; font-variant-east-asian: normal; font-variant-alternates: normal; font-size-adjust: none; font-kerning: auto; font-optical-sizing: auto; font-feature-settings: normal; font-variation-settings: normal; font-variant-position: normal; font-stretch: normal; line-height: normal; color: rgb(0, 0, 0);&quot; class=&quot;p1&quot;&gt;sendmailer.sh&lt;/p&gt;&lt;p style=&quot;margin: 0px; font-variant-numeric: normal; font-variant-east-asian: normal; font-variant-alternates: normal; font-size-adjust: none; font-kerning: auto; font-optical-sizing: auto; font-feature-settings: normal; font-variation-settings: normal; font-variant-position: normal; font-stretch: normal; line-height: normal; color: rgb(0, 0, 0);&quot; class=&quot;p1&quot;&gt;send_querylog&lt;/p&gt;" style="rounded=1;arcSize=10;whiteSpace=wrap;html=1;align=center;spacingBottom=0;spacingTop=0;labelBackgroundColor=none;fillColor=default;strokeColor=#000000;fontColor=#182E3E;" vertex="1" parent="1">
          <mxGeometry x="440" y="451" width="110" height="43.77" as="geometry" />
        </mxCell>
        <mxCell id="zP-hTqinAc85et47i04e-30" value="" style="endArrow=classic;html=1;rounded=1;curved=0;entryX=0;entryY=0.5;entryDx=0;entryDy=0;exitX=1;exitY=0.5;exitDx=0;exitDy=0;" edge="1" parent="1" source="_yV6Y9GvnwlzQ7EZrmGs-44" target="zP-hTqinAc85et47i04e-29">
          <mxGeometry width="50" height="50" relative="1" as="geometry">
            <mxPoint x="240" y="540" as="sourcePoint" />
            <mxPoint x="410" y="603" as="targetPoint" />
            <Array as="points">
              <mxPoint x="400" y="539" />
              <mxPoint x="400" y="473" />
            </Array>
          </mxGeometry>
        </mxCell>
        <mxCell id="zP-hTqinAc85et47i04e-34" value="毎日 2:00 実行" style="edgeLabel;html=1;align=center;verticalAlign=middle;resizable=0;points=[];" vertex="1" connectable="0" parent="1">
          <mxGeometry x="390.99782308245017" y="513.0017880107577" as="geometry">
            <mxPoint x="8" y="-4" as="offset" />
          </mxGeometry>
        </mxCell>
      </root>
    </mxGraphModel>
  </diagram>
</mxfile>
